<?xml version="1.0" standalone="no"?>
<!DOCTYPE svg PUBLIC "-//W3C//DTD SVG 20010904//EN"
 "http://www.w3.org/TR/2001/REC-SVG-20010904/DTD/svg10.dtd">
<svg version="1.0" xmlns="http://www.w3.org/2000/svg"
 width="500.000000pt" height="500.000000pt" viewBox="0 0 500.000000 500.000000"
 preserveAspectRatio="xMidYMid meet">

<g transform="translate(0.000000,500.000000) scale(0.100000,-0.100000)"
fill="#000000" stroke="none">
<path d="M0 2500 l0 -2500 2500 0 2500 0 0 2500 0 2500 -2500 0 -2500 0 0
-2500z m2620 831 c0 -18 -217 -572 -229 -584 -24 -24 -8 24 101 305 96 249
128 319 128 279z m-260 -110 c0 -5 -46 -46 -102 -91 -57 -45 -103 -86 -103
-90 0 -4 46 -45 103 -90 56 -45 102 -86 102 -92 0 -5 -4 -8 -9 -6 -21 7 -231
179 -231 188 0 10 219 189 233 190 4 0 7 -4 7 -9z m410 -82 c63 -50 115 -94
115 -99 0 -9 -226 -190 -237 -190 -23 0 3 27 97 100 58 46 105 86 105 90 0 4
-47 44 -105 90 -94 73 -120 100 -97 100 4 0 59 -41 122 -91z m-477 -586 c42
-18 43 -22 22 -64 -16 -29 -16 -29 -47 -13 -22 12 -48 15 -91 12 -53 -4 -63
-8 -93 -40 -60 -67 -55 -159 13 -218 34 -31 39 -32 102 -27 36 3 75 8 87 12
17 5 23 1 33 -24 7 -16 10 -35 6 -40 -13 -21 -116 -43 -168 -37 -129 18 -202
100 -201 231 0 56 5 79 24 115 58 103 193 144 313 93z m359 0 l37 -15 -17 -34
c-13 -28 -20 -34 -37 -29 -106 34 -170 25 -170 -25 0 -27 23 -42 129 -82 72
-28 99 -61 99 -120 0 -78 -45 -121 -140 -134 -54 -7 -150 9 -178 30 -17 12
-17 17 -5 45 10 26 17 31 34 27 115 -34 166 -31 193 11 13 19 12 24 -5 41 -11
11 -50 30 -88 42 -94 31 -134 71 -134 134 0 112 138 166 282 109z m428 -23 l0
-40 -70 0 -70 0 0 -185 0 -185 -45 0 -45 0 0 185 0 185 -70 0 -70 0 0 40 0 40
185 0 185 0 0 -40z m-630 -629 c0 -14 8 -21 27 -23 17 -2 29 -10 31 -20 3 -14
-3 -18 -28 -18 -29 0 -31 -2 -28 -32 2 -25 9 -34 28 -38 14 -3 26 -14 28 -23
3 -13 -4 -17 -32 -17 -45 0 -66 22 -66 71 0 21 -4 39 -10 39 -5 0 -10 9 -10
20 0 11 5 20 10 20 6 0 10 9 10 20 0 13 7 20 20 20 13 0 20 -7 20 -19z m-382
-42 c2 -12 -5 -14 -33 -11 -47 6 -44 -11 5 -31 32 -12 40 -21 40 -40 0 -13 -6
-30 -14 -36 -21 -17 -100 -10 -104 9 -2 12 6 15 38 12 51 -5 52 11 3 35 -41
19 -52 45 -32 69 17 20 93 15 97 -7z m70 -37 c3 -48 5 -52 28 -52 22 0 24 4
24 50 0 43 3 50 20 50 18 0 20 -7 20 -84 0 -76 -2 -86 -22 -100 -27 -19 -69
-21 -86 -4 -21 21 -13 28 28 28 29 0 40 4 40 15 0 9 -10 15 -26 15 -52 0 -64
15 -64 81 0 52 2 60 18 57 13 -2 18 -15 20 -56z m227 38 c0 -11 -9 -14 -32
-12 -44 5 -42 -12 5 -35 42 -20 51 -43 27 -67 -18 -17 -81 -21 -105 -6 -23 14
-3 24 42 21 50 -3 49 16 -2 33 -28 9 -36 17 -38 40 -4 36 12 47 63 44 28 -2
40 -8 40 -18z m284 -6 c34 -44 28 -54 -34 -54 -30 0 -55 -4 -55 -9 0 -19 31
-33 60 -28 32 7 51 -10 29 -24 -8 -5 -29 -9 -48 -9 -45 0 -81 33 -81 74 0 69
87 103 129 50z m239 14 c7 -7 12 -35 12 -74 0 -57 -2 -64 -20 -64 -16 0 -19 8
-22 58 -3 49 -6 57 -23 57 -17 0 -20 -8 -23 -57 -3 -49 -6 -58 -22 -58 -16 0
-19 9 -22 58 -3 49 -6 57 -23 57 -17 0 -20 -8 -23 -57 -3 -50 -6 -58 -22 -58
-18 0 -20 7 -20 68 0 38 3 71 6 75 10 10 188 5 202 -5z m147 -8 c0 -11 -9 -14
-32 -12 -44 5 -42 -12 5 -35 42 -20 51 -43 27 -67 -18 -17 -81 -21 -105 -6
-23 14 -3 24 42 21 50 -3 49 16 -2 33 -28 9 -36 17 -38 40 -4 36 12 47 63 44
28 -2 40 -8 40 -18z"/>
<path d="M2570 1835 c-11 -13 -7 -15 25 -15 32 0 36 2 25 15 -7 8 -18 15 -25
15 -7 0 -18 -7 -25 -15z"/>
</g>
</svg>
